<?xml version="1.0" encoding="UTF-8"?>
<svg id="Layer_1" xmlns="http://www.w3.org/2000/svg" version="1.1" viewBox="0 0 676 168.5">
  <!-- Generator: Adobe Illustrator 29.1.0, SVG Export Plug-In . SVG Version: 2.1.0 Build 142)  -->
  <defs>
    <style>
      .st0 {
        fill: none;
      }

      .st1 {
        fill: #fff;
      }
    </style>
  </defs>
  <path class="st1" d="M93.7,58.6c-4.4-2.4-9.3-3.6-14.9-3.6h-22.2v56.2h22.3c5.6,0,10.5-1.2,14.9-3.6,4.4-2.4,7.8-5.7,10.2-10s3.6-9.1,3.6-14.5-1.2-10.2-3.6-14.5c-2.4-4.3-5.8-7.6-10.2-10h0ZM91.2,91.2c-1.2,2.3-3,4.1-5.2,5.3-2.3,1.2-4.9,1.8-7.9,1.8h-7.4v-30.7h7.4c3,0,5.6.6,7.9,1.8,2.3,1.2,4,3,5.2,5.3s1.8,5,1.8,8.2-.6,5.8-1.8,8.2h0Z"/>
  <path class="st1" d="M155.9,57.5c-4.6-2.5-9.8-3.8-15.6-3.8s-11.1,1.3-15.7,3.8-8.2,6.1-10.8,10.5c-2.6,4.5-3.9,9.5-3.9,15.1s1.3,10.6,3.9,15.1c2.6,4.5,6.2,8,10.8,10.5,4.6,2.5,9.8,3.8,15.7,3.8s11-1.3,15.6-3.8,8.2-6.1,10.8-10.5c2.6-4.5,3.9-9.5,3.9-15.1s-1.3-10.6-3.9-15.1-6.2-8-10.8-10.5ZM154,91.5c-1.4,2.5-3.3,4.5-5.7,5.9-2.4,1.4-5.1,2.1-8.1,2.1s-5.7-.7-8.2-2.1-4.3-3.3-5.7-5.9c-1.4-2.5-2-5.3-2-8.4s.7-5.9,2-8.4c1.4-2.5,3.3-4.5,5.7-5.9,2.4-1.4,5.2-2.1,8.2-2.1s5.7.7,8.1,2.1,4.3,3.3,5.7,5.9c1.4,2.5,2.1,5.3,2.1,8.4s-.7,5.9-2.1,8.4Z"/>
  <polygon class="st1" points="225.6 88.2 214.8 54.9 202.3 54.9 191.9 88.1 182.1 54.9 167.4 54.9 184.7 111.2 197.7 111.2 208.7 76.3 219.8 111.2 232.8 111.2 250 54.9 235.4 54.9 225.6 88.2"/>
  <polygon class="st1" points="287.8 86.4 265.5 54.9 252.8 54.9 252.8 111.2 266.7 111.2 266.7 79.7 289.1 111.2 301.7 111.2 301.7 54.9 287.8 54.9 287.8 86.4"/>
  <path class="st1" d="M344.3,79.4c-2.9-1.2-6.4-2.3-10.5-3.2-2.6-.6-4.6-1.1-6-1.6s-2.5-1-3.4-1.7-1.3-1.5-1.3-2.5.6-2.2,1.7-3,2.8-1.2,4.9-1.2,4.5.5,5.8,1.6c1.3,1,2,2.5,2,4.3h15.6c0-3.8-.9-7.1-2.6-9.9-1.7-2.8-4.3-4.9-7.7-6.4-3.4-1.5-7.6-2.2-12.6-2.2s-9.1.7-12.5,2.2c-3.4,1.4-6.1,3.4-7.9,6-1.8,2.5-2.7,5.5-2.7,8.9s1,6.7,3,9,4.4,4.1,7.2,5.3c2.8,1.2,6.2,2.2,10.2,3.1,2.7.7,4.7,1.3,6.2,1.8s2.7,1.2,3.7,2,1.5,1.8,1.5,3.1-.7,2.6-2,3.5-3.3,1.4-6,1.4-5.2-.6-6.7-1.7c-1.5-1.2-2.2-2.9-2.2-5.1h-15.9c0,3.9.9,7.3,2.8,10.2s4.7,5.2,8.4,6.9c3.7,1.6,8.2,2.5,13.5,2.5s9.4-.8,12.9-2.3c3.6-1.5,6.3-3.7,8.2-6.4,1.9-2.8,2.8-5.9,2.8-9.4s-1-7.1-3.1-9.5-4.5-4.2-7.4-5.3v-.4Z"/>
  <polygon class="st1" points="355 68 370.3 68 370.3 111.2 384.5 111.2 384.5 68 399.7 68 399.7 54.9 355 54.9 355 68"/>
  <path class="st1" d="M440.4,87.8c2.1-1.7,3.8-3.7,4.9-6.1,1.2-2.4,1.8-5,1.8-7.9s-.9-6.7-2.6-9.6c-1.7-2.9-4.1-5.1-7.3-6.7-3.1-1.6-6.7-2.5-10.6-2.5h-23.4v56.2h14.1v-18.2h6.3l10.1,18.2h15.7l-12.2-21.4c1.1-.6,2.2-1.2,3.2-2ZM430.7,69.4c1.3,1.2,2,2.8,2,4.7s-.7,3.6-2,4.8c-1.3,1.2-3.2,1.8-5.6,1.8h-7.8v-13.1h7.8c2.4,0,4.3.6,5.6,1.8Z"/>
  <polygon class="st1" points="468.2 88.9 486.8 88.9 486.8 76.8 468.2 76.8 468.2 67.5 488.9 67.5 488.9 54.9 454 54.9 454 111.2 489.7 111.2 489.7 98.6 468.2 98.6 468.2 88.9"/>
  <path class="st1" d="M513.4,54.9l-22,56.2h15l3.8-9.6h20.3l3.7,9.6h15.3l-22-56.2h-14.1,0ZM526.8,89.8h-13l6.5-17.4,6.5,17.4Z"/>
  <polygon class="st1" points="601.2 55.1 586.5 87.8 585.8 87.8 571.1 55.1 552.1 55.1 552.1 111.1 566.4 111.1 566.4 77.5 566.9 77.5 581.9 110.7 590.4 110.7 605.4 77.7 605.9 77.7 605.9 111.1 620.2 111.1 620.2 55.1 601.2 55.1"/>
  <rect class="st0" width="676" height="168.5"/>
</svg>