<?xml version="1.0" encoding="UTF-8"?><svg id="Layer_1" xmlns="http://www.w3.org/2000/svg" viewBox="0 0 461.93 108.82"><defs><style>.cls-1{fill:none;stroke:#fff;stroke-miterlimit:1;stroke-width:.51px;}.cls-2{fill:#fff;stroke-width:0px;}</style></defs><g id="Downstream_Logo"><path class="cls-2" d="m29.57,52.81v-27.18h-10.56c-8.06,0-11.14,3.55-11.14,13.35s3.08,13.83,11.14,13.83h10.56ZM0,38.89c0-13.54,6.92-19.49,18.15-19.49h11.42V0h7.69v59.05h-19.11C6.92,59.05,0,52.43,0,38.89"/><path class="cls-2" d="m79.8,39.47c0-11.14-4.13-14.78-12.48-14.78s-12.39,3.64-12.39,14.78,4.23,14.41,12.48,14.41,12.39-3.27,12.39-14.41m-32.74-.1c0-14.59,8.93-20.74,20.36-20.74s20.26,6.14,20.26,20.74-8.93,20.46-20.36,20.46-20.26-5.86-20.26-20.46"/><path class="cls-2" d="m97.08,41.19v-21.8h7.68v20.93c0,8.54,1.34,12.48,8.55,12.48h7.78V19.39h7.69v33.42h7.78c7.2,0,8.55-3.94,8.55-12.48v-20.93h7.68v21.8c0,12.48-4.99,17.86-15.94,17.86h-23.82c-10.95,0-15.94-5.38-15.94-17.86"/><path class="cls-2" d="m163.73,19.4h20.16c11.04,0,16.04,5.38,16.04,17.86v21.8h-7.68v-20.94c0-8.54-1.63-12.48-8.54-12.48h-12.29v33.42h-7.68V19.4Z"/><path class="cls-2" d="m209.44,52.53h18.63c3.07,0,6.53-.96,6.53-4.99s-2.4-5.09-6.05-5.09h-6.73c-6.63,0-13.25-2.78-13.25-11.62s7.58-11.42,14.31-11.42h16.61v6.53h-17.09c-4.03,0-6.53,1.15-6.53,4.8,0,3.46,2.11,4.9,5.95,4.9h6.91c7.11,0,13.26,2.69,13.26,11.71s-6.34,11.71-13.06,11.71h-19.49v-6.53Z"/><path class="cls-2" d="m247.18,25.73v-6.34h7.3v-11.14h7.68v11.14h13.16v6.34h-13.16v16.61c0,7.97,1.92,10.17,7.78,10.17h4.13v6.53h-5.19c-8.64,0-14.4-3.45-14.4-16.04v-17.29h-7.3Z"/><path class="cls-2" d="m282.9,36.59c0-10.85,4.22-17.19,14.79-17.19h8.45v6.53h-8.07c-6.24,0-7.49,3.65-7.49,11.53v21.6h-7.68v-22.47Z"/><path class="cls-2" d="m332.93,25.16c-6.53,0-10.85,2.5-11.72,10.86h22.37c-.48-7.49-3.65-10.86-10.66-10.86m-1.05,27.37h15.75v6.53h-16.23c-9.61,0-18.25-5.38-18.25-19.68s8.35-20.74,19.5-20.74c12.77,0,18.82,7.2,18.82,20.26v3.45h-30.35c.86,8.45,5.57,10.18,10.76,10.18"/><path class="cls-2" d="m373.06,41.2c-3.93,0-6.53,1.25-6.53,5.76s2.79,5.76,6.53,5.76h14.7v-11.52h-14.7Zm7.3-15.27h-17.38v-6.53h18.15c9.89,0,14.31,6.44,14.31,16.99v22.66h-22.86c-7.29,0-13.92-2.79-13.92-12.01s6.24-11.9,13.92-11.9h15.18c-.29-5.95-1.64-9.22-7.39-9.22"/><path class="cls-2" d="m406,37.26c0-12.48,4.99-17.86,15.94-17.86h23.82c10.95,0,15.94,5.37,15.94,17.86v21.8h-7.68v-20.93c0-8.55-1.34-12.49-8.55-12.49h-7.78v33.42h-7.69V25.64h-7.78c-7.21,0-8.55,3.94-8.55,12.49v20.93h-7.68v-21.8Z"/></g><path class="cls-1" d="m298.64,68.22c-10.04,1.21-17.82,9.72-17.82,20.09s7.78,18.87,17.74,20.09m-4.78,0c9.96-1.22,17.74-9.72,17.74-20.09s-7.78-18.87-17.82-20.09m-17.58,17.5c1.3,9.96,9.72,17.66,20.01,17.66s18.79-7.69,20.01-17.66m.08,5.18c-1.3-9.96-9.72-17.66-20.01-17.66s-18.79,7.69-20.09,17.66m7.53-2.59c0,6.89,5.59,12.56,12.47,12.56s12.56-5.59,12.56-12.56-5.59-12.56-12.56-12.56c-6.89,0-12.47,5.59-12.47,12.55h0Zm-7.69,0h0c0,11.18,9.07,20.25,20.17,20.25s20.25-9.07,20.25-20.25-9.07-20.25-20.25-20.25c-11.1,0-20.17,9.07-20.17,20.25h0Z"/><path class="cls-2" d="m334.52,78.75v13.28c-1.46,1.94-3.56,3.08-5.75,3.08-3.16,0-5.1-2.02-5.1-5.51v-10.85h-3.56v10.93c0,5.18,3.32,8.75,8.18,8.75,2.27,0,4.46-.73,6.24-2.11v1.54h3.56v-19.12h-3.56Z"/><path class="cls-2" d="m349.34,78.19c-2.35,0-4.54.73-6.24,2.19v-1.62h-3.56v19.12h3.56v-13.2c1.46-1.94,3.65-3.08,5.75-3.08,3.16,0,5.1,2.11,5.1,5.51v10.77h3.56v-10.93c0-5.27-3.32-8.75-8.18-8.75"/><path class="cls-2" d="m358.9,78.75h3.56v19.12h-3.56v-19.12Z"/><path class="cls-2" d="m374.78,86.85l-3.81-.65c-2.19-.32-3.24-1.05-3.24-2.35,0-1.54,1.54-2.59,4.05-2.59,2.83,0,4.37,1.13,4.7,3.24l.08.4h3.32l-.08-.49c-.16-2.03-1.13-3.65-2.84-4.78-1.38-.89-3.08-1.38-5.18-1.38-4.62,0-7.61,2.35-7.61,5.83,0,2.92,1.94,4.7,5.75,5.26l4.37.73c.81.16,2.75.57,2.75,2.43,0,1.62-1.78,2.75-4.45,2.75-3.16,0-5.02-1.22-5.51-3.56l-.08-.41h-3.4s0,.41.08.57c.57,4.21,3.73,6.56,8.91,6.56s8.1-2.35,8.1-6.08c-.08-3.08-2.11-4.86-5.91-5.51"/><path class="cls-2" d="m418.03,78.75v1.54c-1.7-1.3-3.81-2.02-6.08-2.02-5.43,0-9.88,4.45-9.88,10.04,0,2.67,1.05,5.18,2.92,7.13,1.86,1.86,4.29,2.92,6.97,2.92,2.35,0,4.37-.65,6.08-1.94v1.46h3.56v-19.12h-3.56Zm0,13.28c-1.38,1.94-3.4,3-5.75,3-3.73,0-6.56-3-6.56-6.8s2.92-6.72,6.56-6.72c2.35,0,4.29,1.05,5.75,3v7.53h0Z"/><path class="cls-2" d="m432.69,81.67c2.75,0,4.7,1.38,5.26,3.73l.08.32h3.65s-.08-.41-.08-.57c-.81-4.13-4.37-6.97-8.99-6.97-5.67,0-9.88,4.29-9.88,10.04s4.29,10.04,9.88,10.04c4.54,0,8.18-2.75,8.99-6.88,0-.16.08-.57.08-.57h-3.65l-.08.32c-.57,2.27-2.59,3.73-5.26,3.73-3.65,0-6.32-2.84-6.32-6.64s2.67-6.56,6.32-6.56Z"/><path class="cls-2" d="m452.62,78.27c-5.67,0-9.88,4.29-9.88,10.04,0,2.75.81,5.27,2.59,7.13s4.29,2.92,7.05,2.92c4.13,0,7.78-2.11,8.91-5.43.08-.16.16-.57.16-.57h-3.81l-.08.24c-.73,1.54-2.83,2.51-5.1,2.51-3.24,0-5.43-2.02-5.99-5.26h15.39c.08-.41.08-1.22.08-1.62-.08-5.75-3.97-9.96-9.32-9.96m-6.24,8.5c.49-2.75,2.51-5.35,6.16-5.35,3.08,0,5.18,2.02,5.67,5.35h-11.83Z"/><path class="cls-2" d="m391.3,78.27c-2.35,0-4.37.65-6.08,2.02v-1.54h-3.56v28.84h3.56v-11.26c1.7,1.3,3.81,2.02,6.08,2.02,2.67,0,5.18-1.05,6.97-2.92,1.86-1.86,2.83-4.45,2.83-7.13s-1.05-5.18-2.83-7.13c-1.78-1.86-4.29-2.92-6.97-2.92m6.32,10.04c0,3.73-3,6.8-6.56,6.8-2.35,0-4.37-1.05-5.75-3.08v-7.37c1.38-2.03,3.4-3.08,5.75-3.08,3.56,0,6.56,3,6.56,6.72Z"/></svg>