<?xml version="1.0" encoding="UTF-8"?>
<svg id="Layer_1" xmlns="http://www.w3.org/2000/svg" version="1.1" viewBox="0 0 676 168.5">
  <!-- Generator: Adobe Illustrator 29.1.0, SVG Export Plug-In . SVG Version: 2.1.0 Build 142)  -->
  <defs>
    <style>
      .st0 {
        fill: none;
      }
    </style>
  </defs>
  <path d="M93.3,59.8c-4.4-2.4-9.3-3.6-14.9-3.6h-22.2v56.2h22.3c5.6,0,10.5-1.2,14.9-3.6,4.4-2.4,7.8-5.7,10.2-10s3.6-9.1,3.6-14.5-1.2-10.2-3.6-14.5c-2.4-4.3-5.8-7.6-10.2-10h0ZM90.8,92.4c-1.2,2.3-3,4.1-5.2,5.3-2.3,1.2-4.9,1.8-7.9,1.8h-7.4v-30.7h7.4c3,0,5.6.6,7.9,1.8,2.3,1.2,4,3,5.2,5.3s1.8,5,1.8,8.2-.6,5.8-1.8,8.2h0Z"/>
  <path d="M155.5,58.7c-4.6-2.5-9.8-3.8-15.6-3.8s-11.1,1.3-15.7,3.8-8.2,6.1-10.8,10.5c-2.6,4.5-3.9,9.5-3.9,15.1s1.3,10.6,3.9,15.1c2.6,4.5,6.2,8,10.8,10.5,4.6,2.5,9.8,3.8,15.7,3.8s11-1.3,15.6-3.8,8.2-6.1,10.8-10.5c2.6-4.5,3.9-9.5,3.9-15.1s-1.3-10.6-3.9-15.1-6.2-8-10.8-10.5ZM153.6,92.7c-1.4,2.5-3.3,4.5-5.7,5.9-2.4,1.4-5.1,2.1-8.1,2.1s-5.7-.7-8.2-2.1-4.3-3.3-5.7-5.9c-1.4-2.5-2-5.3-2-8.4s.7-5.9,2-8.4c1.4-2.5,3.3-4.5,5.7-5.9,2.4-1.4,5.2-2.1,8.2-2.1s5.7.7,8.1,2.1,4.3,3.3,5.7,5.9c1.4,2.5,2.1,5.3,2.1,8.4s-.7,5.9-2.1,8.4Z"/>
  <polygon points="225.2 89.4 214.4 56.1 201.9 56.1 191.5 89.3 181.7 56.1 167 56.1 184.3 112.4 197.3 112.4 208.3 77.5 219.4 112.4 232.4 112.4 249.6 56.1 235 56.1 225.2 89.4"/>
  <polygon points="287.4 87.6 265.1 56.1 252.4 56.1 252.4 112.4 266.3 112.4 266.3 80.9 288.7 112.4 301.3 112.4 301.3 56.1 287.4 56.1 287.4 87.6"/>
  <path d="M343.9,80.6c-2.9-1.2-6.4-2.3-10.5-3.2-2.6-.6-4.6-1.1-6-1.6s-2.5-1-3.4-1.7-1.3-1.5-1.3-2.5.6-2.2,1.7-3,2.8-1.2,4.9-1.2,4.5.5,5.8,1.6c1.3,1,2,2.5,2,4.3h15.6c0-3.8-.9-7.1-2.6-9.9-1.7-2.8-4.3-4.9-7.7-6.4-3.4-1.5-7.6-2.2-12.6-2.2s-9.1.7-12.5,2.2c-3.4,1.4-6.1,3.4-7.9,6-1.8,2.5-2.7,5.5-2.7,8.9s1,6.7,3,9,4.4,4.1,7.2,5.3c2.8,1.2,6.2,2.2,10.2,3.1,2.7.7,4.7,1.3,6.2,1.8s2.7,1.2,3.7,2,1.5,1.8,1.5,3.1-.7,2.6-2,3.5-3.3,1.4-6,1.4-5.2-.6-6.7-1.7c-1.5-1.2-2.2-2.9-2.2-5.1h-15.9c0,3.9.9,7.3,2.8,10.2s4.7,5.2,8.4,6.9c3.7,1.6,8.2,2.5,13.5,2.5s9.4-.8,12.9-2.3c3.6-1.5,6.3-3.7,8.2-6.4,1.9-2.8,2.8-5.9,2.8-9.4s-1-7.1-3.1-9.5-4.5-4.2-7.4-5.3v-.4Z"/>
  <polygon points="354.6 69.2 369.9 69.2 369.9 112.4 384.1 112.4 384.1 69.2 399.3 69.2 399.3 56.1 354.6 56.1 354.6 69.2"/>
  <path d="M440,89c2.1-1.7,3.8-3.7,4.9-6.1,1.2-2.4,1.8-5,1.8-7.9s-.9-6.7-2.6-9.6c-1.7-2.9-4.1-5.1-7.3-6.7-3.1-1.6-6.7-2.5-10.6-2.5h-23.4v56.2h14.1v-18.2h6.3l10.1,18.2h15.7l-12.2-21.4c1.1-.6,2.2-1.2,3.2-2ZM430.3,70.6c1.3,1.2,2,2.8,2,4.7s-.7,3.6-2,4.8c-1.3,1.2-3.2,1.8-5.6,1.8h-7.8v-13.1h7.8c2.4,0,4.3.6,5.6,1.8Z"/>
  <polygon points="467.8 90.1 486.4 90.1 486.4 78 467.8 78 467.8 68.7 488.5 68.7 488.5 56.1 453.6 56.1 453.6 112.4 489.3 112.4 489.3 99.8 467.8 99.8 467.8 90.1"/>
  <path d="M513,56.1l-22,56.2h15l3.8-9.6h20.3l3.7,9.6h15.3l-22-56.2h-14.1,0ZM526.4,91h-13l6.5-17.4,6.5,17.4Z"/>
  <polygon points="600.8 56.3 586.1 89 585.4 89 570.7 56.3 551.7 56.3 551.7 112.3 566 112.3 566 78.7 566.5 78.7 581.5 111.9 590 111.9 605 78.9 605.5 78.9 605.5 112.3 619.8 112.3 619.8 56.3 600.8 56.3"/>
  <rect class="st0" width="676" height="168.5"/>
</svg>